<?xml version="1.0" encoding="utf-8"?>
<!-- Generator: Adobe Illustrator 21.1.0, SVG Export Plug-In . SVG Version: 6.00 Build 0)  -->
<svg version="1.1" id="Layer_1" xmlns="http://www.w3.org/2000/svg" xmlns:xlink="http://www.w3.org/1999/xlink" x="0px" y="0px"
	 viewBox="0 0 600 697.2" style="enable-background:new 0 0 600 697.2;" xml:space="preserve">
<style type="text/css">
	.st0{enable-background:new    ;}
</style>
<g class="st0">
	<path d="M45.4,99c11-5,29.1-6,44.7-7.1V76.6c0-15.2-12.1-24.1-27-24.1c-14.1,0-25.2,6.2-31.2,11.4l-3.5-5.8
		c6.4-6.2,19.3-12.9,35.6-12.9c19.1,0,33.5,11.4,33.5,31V135c0,5.2,3.7,10.2,9.4,10.2c3.3,0,5.8-0.8,8.1-2.3l1.9,6.2
		c-3.3,1.9-6.7,3.1-11.2,3.1c-9.4,0-15.4-8.3-15.4-16.6v-5.8C81.8,147,66,153.3,56.2,153.3c-17.9,0-30.4-10.2-30.4-28.1
		C25.9,111.1,35,103.8,45.4,99z M90.1,117.5V98.8c-15.2,0.4-31.6,2.1-40.5,6c-8.9,4-15.6,9.6-15.6,20.2c0,13.3,9.8,21.2,23.5,21.2
		C65,146.2,83.1,139.6,90.1,117.5z"/>
</g>
<g class="st0">
	<path d="M161,97.8c10.4-4.6,26.8-5.8,42.6-6.9V78.2c0-14.3-11.2-22.7-25.6-22.7c-13.1,0-23.3,5.4-30.1,10.4l-4.4-8.5
		c7.3-6,20.2-12.3,36.2-12.3c19.8,0,34.5,11.6,34.5,32.2v55.5c0,5,3.3,9.4,8.5,9.4c2.9,0,5.4-0.8,7.5-2.1l2.3,9.1
		c-3.7,2.1-7.1,3.1-12.1,3.1c-10.6,0-16.8-9.1-16.8-18.5v-1.5c-7.9,14.3-21.8,20.8-32.4,20.8c-17.7,0-30.1-10.6-30.1-28.5
		C141.1,110,150.4,102.3,161,97.8z M203.6,118.4v-18.3c-15.4,0.6-28.9,2.3-36.8,5.6c-9.4,3.5-14.6,9.6-14.6,18.7
		c0,11.6,8.9,19.1,21.8,19.1C181.6,143.5,196.8,136.6,203.6,118.4z"/>
</g>
<g class="st0">
	<path d="M276.2,95.3c9.1-3.7,23.3-5,38.7-6.2v-7.9c0-12.5-9.4-20-22.5-20c-11.2,0-20.4,4-28.7,8.7l-5.6-13.5
		c8.9-6,21.8-11.2,37.4-11.2c20.8,0,35.8,12.3,35.8,34.5V129c0,4.8,3.1,8.3,7.3,8.3c2.5,0,4.6-0.6,6.4-1.7l3.1,13.9
		c-4.8,2.3-8.1,3.1-13.9,3.1c-10.4,0-17-7.1-18.9-16c-6.9,10.6-17.9,16.6-29.7,16.6c-17.5,0-30.4-11-30.4-29.1
		C255.2,108.4,265,99.6,276.2,95.3z M314.9,119.8v-17c-14.1,0.8-23.5,2.7-29.5,4.4c-10.2,3.1-13.1,9.4-13.1,16.2
		c0,8.7,7.5,15.2,18.7,15.2C298.2,138.5,308.8,131.9,314.9,119.8z"/>
</g>
<g class="st0">
	<path d="M390.3,93.8c8.3-2.9,20.6-4.4,35.8-5.6v-1.9c0-10.8-7.5-17.5-19.5-17.5c-9.6,0-16.8,2.1-27.2,6.7l-7.5-21
		c11-5.6,24.3-9.4,39.1-9.4c24.7,0,39.5,13.5,39.5,38V124c0,4.2,2.1,6.2,5.2,6.2c2.1,0,3.7-0.4,5.2-1l4.8,20.6
		c-6.4,2.7-10,3.5-16.6,3.5c-11.2,0-18.5-6.9-21.4-16.4c-6.2,9.8-16,16.4-28.5,16.4c-17.3,0-31-11.6-31-29.9
		C368.1,107.1,377,98.4,390.3,93.8z M426.1,122.9v-18.7c-11.4,0.8-19.5,2.1-24.5,4.2c-6.4,2.3-8.5,6.7-8.5,12.1
		c0,6.4,5.4,11.2,14.8,11.2C412.8,131.7,420.3,129.6,426.1,122.9z"/>
</g>
<g class="st0">
	<path d="M505.3,93.2c7.9-2.5,19.5-4.2,34.3-5.4c-0.4-9.1-6.9-15.2-17.9-15.2c-8.9,0-15.2,1.2-26.6,5.6l-8.3-24.5
		c11.9-5.6,25.6-8.5,39.7-8.5c27,0,41.4,14.3,41.4,39.9v36.4c0,4,1.9,5.2,4.4,5.2c1.9,0,3.3-0.2,4.6-0.6l5.6,23.7
		c-7.3,2.9-10.8,3.7-17.9,3.7c-11.6,0-19.5-6.7-22.9-16.4c-6,9.6-15.2,16.2-27.9,16.2c-17.3,0-31.4-12.1-31.4-30.4
		C482.4,106.5,491.2,97.8,505.3,93.2z M539.6,123.5v-18.7c-10.2,0.8-17.7,2.1-22,4c-4.4,2.1-6.2,5.2-6.2,10.2
		c0,5.4,4.6,9.4,12.9,9.4C528.2,128.3,534.4,127.7,539.6,123.5z"/>
</g>
<g class="st0">
	<path d="M36.1,381.9v19.3h-7.5V254h7.5v62.6c5.4-10.2,16-21.4,32.6-21.4c24.9,0,41.4,18.3,41.4,54.1c0,34.1-17.5,54.1-41.4,54.1
		C52.1,403.3,41.5,392.1,36.1,381.9z M36.1,328.4v41.4c2.3,8.7,12.9,26,31.6,26c21.2,0,34.3-18.3,34.3-46.6
		c0-29.5-11.9-46.8-34.3-46.8C49.4,302.4,38.4,319.7,36.1,328.4z"/>
</g>
<g class="st0">
	<path d="M154.4,383.3v17.9h-10.8V254.6h10.8v60.5c5.4-10,15.2-20,31.2-20c23.9,0,40.7,18.1,40.7,53.8c0,34.5-17.9,54.3-40.7,54.3
		C169.5,403.3,159.8,393.3,154.4,383.3z M154.4,329.3v39.5c2.5,9.6,12.5,23.7,28.9,23.7c19.8,0,31.8-17,31.8-43.5
		c0-27.2-10.8-43.5-31.8-43.5C167.3,305.6,156.9,319.9,154.4,329.3z"/>
</g>
<g class="st0">
	<path d="M274.3,386.9v14.3h-16.6V255.5h16.6v56.3c5.2-9.1,14.1-16.6,28.3-16.6c22.5,0,40.1,17.7,40.1,53.8
		c0,34.7-18.9,54.3-40.1,54.3C288.2,403.3,279.5,395.8,274.3,386.9z M274.3,330.7v37c3.1,9.4,11.4,18.9,24.1,18.9
		c17.3,0,27-15,27-37.6c0-23.5-8.7-37.8-27-37.8C286,311.2,277.4,321.2,274.3,330.7z"/>
</g>
<g class="st0">
	<path d="M395.1,388.5v12.7h-24.5V256.9h24.5v53.2c5.2-8.5,13.5-15,26.2-15c20.6,0,39.9,17,39.9,53.6c0,35.6-20.8,54.5-39.9,54.5
		C408.4,403.3,400.3,397,395.1,388.5z M395.1,332v34.1c3.3,7.7,9.8,13.3,19.1,13.3c14.3,0,21.8-12.1,21.8-30.6
		c0-18.9-6.7-30.4-21.8-30.4C405.1,318.5,398.4,324.1,395.1,332z"/>
</g>
<g class="st0">
	<path d="M513.4,389.3v11.9h-28.5V257.7h28.5v51.8c5.2-8.3,13.3-14.3,25.4-14.3c19.5,0,39.7,16.6,39.7,53.6
		c0,35.8-21.8,54.5-39.7,54.5C526.5,403.3,518.6,397.7,513.4,389.3z M513.4,333v32.2c3.1,6.7,8.7,10.6,16.6,10.6
		c13.1,0,19.3-10.6,19.3-27c0-16.6-5.6-26.8-19.3-26.8C522.3,322,516.5,326.1,513.4,333z"/>
</g>
<g class="st0">
	<path d="M25.7,601.7c0-35.3,21.4-56.5,48.4-56.5c12.5,0,23.1,3.5,30.1,9.6l-3.1,6c-7.9-6-18.1-8.3-26.8-8.3
		c-23.9,0-40.7,19.1-40.7,49.1c0,23.5,15.8,44.5,41,44.5c12.3,0,21.6-3.7,28.3-10.6l3.3,5.4c-5.8,6.9-16,12.5-32.4,12.5
		C45.2,653.3,25.7,629.6,25.7,601.7z"/>
</g>
<g class="st0">
	<path d="M141.5,601.5c0-35.3,21.8-56.3,48.9-56.3c12.7,0,23.3,3.3,31,9.8l-4.2,8.9c-8.3-6.2-17.9-8.3-26.4-8.3
		c-22.2,0-38.3,17.7-38.3,45.7c0,22.5,15,41.6,38.9,41.6c11.6,0,20.6-3.5,27.2-10l4.6,7.9c-6.9,7.1-17,12.5-33.3,12.5
		C161.4,653.3,141.5,630.4,141.5,601.5z"/>
</g>
<g class="st0">
	<path d="M256.9,601.1c0-34.9,23.1-55.9,50.1-55.9c12.7,0,23.5,3.3,32,10.6l-5.6,13.5c-9.1-6.2-17.7-8.1-25.6-8.1
		c-20,0-34.1,15.4-34.1,39.5c0,20.6,13.1,36.6,34.9,36.6c10.8,0,18.9-2.7,25.8-9.1l6.2,12.5c-8.1,8.1-18.7,12.7-34.7,12.7
		C277.6,653.3,256.9,631.7,256.9,601.1z"/>
</g>
<g class="st0">
	<path d="M371,600.3c0-34.9,25.2-55.1,52.2-55.1c13.1,0,24.3,3.3,34.9,12.1l-8.9,19.8c-10.2-7.3-18.1-8.7-24.9-8.7
		c-16,0-28.1,12.3-28.1,31c0,17.9,11.2,29.9,29.5,29.9c8.7,0,16-1.9,23.7-8.9l10.2,18.7c-10,10-21.4,14.3-37.4,14.3
		C393.9,653.3,371,633.7,371,600.3z"/>
</g>
<g class="st0">
	<path d="M486,599.8c0-34.9,26.2-54.7,53.2-54.7c13.3,0,24.9,3.3,36.4,12.9L565,580.7c-10.8-7.9-18.3-8.9-24.5-8.9
		c-14.1,0-25.2,10.6-25.2,26.6c0,16.6,10.2,26.6,26.8,26.6c7.9,0,14.6-1.2,22.7-8.7l12.3,21.8c-10.8,10.8-22.7,15.2-38.9,15.2
		C509.9,653.3,486,634.8,486,599.8z"/>
</g>
</svg>
